<svg xmlns="http://www.w3.org/2000/svg" viewBox="0 0 256 256" fill="none">
  <defs>
    <linearGradient id="iconGradient" x1="0%" y1="0%" x2="100%" y2="100%">
      <stop offset="0%" style="stop-color:#3b82f6;stop-opacity:1" />
      <stop offset="100%" style="stop-color:#1e40af;stop-opacity:1" />
    </linearGradient>
  </defs>
  
  <!-- Background -->
  <rect width="256" height="256" rx="48" fill="#0f172a"/>
  
  <!-- Shield Outline -->
  <path d="M128 24L32 72v64c0 48 43 96 96 96s96-48 96-96V72L128 24z" fill="url(#iconGradient)" opacity="0.2"/>
  <path d="M128 24L32 72v64c0 48 43 96 96 96s96-48 96-96V72L128 24z" stroke="#3b82f6" stroke-width="4" fill="none"/>
  
  <!-- Lock Body -->
  <rect x="78" y="110" width="100" height="80" rx="12" fill="#3b82f6"/>
  
  <!-- Lock Shackle -->
  <path d="M100 110V85c0-15.5 12.5-28 28-28s28 12.5 28 28v25" stroke="#60a5fa" stroke-width="14" fill="none" stroke-linecap="round"/>
  
  <!-- Keyhole -->
  <circle cx="128" cy="145" r="14" fill="#0f172a"/>
  <path d="M128 159v18" stroke="#0f172a" stroke-width="10" stroke-linecap="round"/>
  
  <!-- Signal Waves -->
  <path d="M56 128c0-40 32-72 72-72" stroke="#06b6d4" stroke-width="3" fill="none" stroke-linecap="round" opacity="0.5"/>
  <path d="M200 128c0 40-32 72-72 72" stroke="#06b6d4" stroke-width="3" fill="none" stroke-linecap="round" opacity="0.5"/>
</svg>